<mxfile host="app.diagrams.net" modified="2021-02-23T01:45:21.302Z" agent="5.0 (X11)" etag="cL8i5M5fhfgoylyWz4dZ" version="14.4.2" type="github">
  <diagram id="0tBDLa9PL7fGlPBLeg3F" name="Page-1">
    <mxGraphModel dx="1447" dy="820" grid="0" gridSize="10" guides="1" tooltips="1" connect="1" arrows="1" fold="1" page="1" pageScale="1" pageWidth="1400" pageHeight="850" math="0" shadow="0">
      <root>
        <mxCell id="0" />
        <mxCell id="1" parent="0" />
        <mxCell id="6eRfG2nsKR9ZNQWgb50U-3" value="" style="rounded=1;whiteSpace=wrap;html=1;" parent="1" vertex="1">
          <mxGeometry x="268" y="120" width="783" height="612" as="geometry" />
        </mxCell>
        <mxCell id="6eRfG2nsKR9ZNQWgb50U-1" value="" style="outlineConnect=0;dashed=0;verticalLabelPosition=bottom;verticalAlign=top;align=center;html=1;shape=mxgraph.aws3.cloud_2;fillColor=#F58534;gradientColor=none;" parent="1" vertex="1">
          <mxGeometry x="296" y="85" width="65" height="65" as="geometry" />
        </mxCell>
        <mxCell id="6eRfG2nsKR9ZNQWgb50U-4" value="" style="outlineConnect=0;dashed=0;verticalLabelPosition=bottom;verticalAlign=top;align=center;html=1;shape=mxgraph.aws3.internet_gateway;fillColor=#F58536;gradientColor=none;" parent="1" vertex="1">
          <mxGeometry x="1015" y="393" width="69" height="72" as="geometry" />
        </mxCell>
        <mxCell id="6eRfG2nsKR9ZNQWgb50U-5" value="" style="rounded=1;whiteSpace=wrap;html=1;" parent="1" vertex="1">
          <mxGeometry x="403" y="156.5" width="499" height="531" as="geometry" />
        </mxCell>
        <mxCell id="6eRfG2nsKR9ZNQWgb50U-6" value="&lt;span style=&quot;color: rgb(22 , 25 , 31) ; font-family: &amp;#34;amazon ember&amp;#34; , &amp;#34;helvetica neue&amp;#34; , &amp;#34;roboto&amp;#34; , &amp;#34;arial&amp;#34; , sans-serif ; font-size: 14px ; font-style: normal ; font-weight: 400 ; letter-spacing: normal ; text-indent: 0px ; text-transform: none ; word-spacing: 0px ; background-color: rgb(241 , 250 , 255) ; display: inline ; float: none&quot;&gt;172.20.0.0/16&lt;/span&gt;" style="text;html=1;strokeColor=none;fillColor=none;align=center;verticalAlign=middle;whiteSpace=wrap;rounded=0;" parent="1" vertex="1">
          <mxGeometry x="502" y="162" width="40" height="20" as="geometry" />
        </mxCell>
        <mxCell id="6eRfG2nsKR9ZNQWgb50U-8" value="" style="outlineConnect=0;dashed=0;verticalLabelPosition=bottom;verticalAlign=top;align=center;html=1;shape=mxgraph.aws3.virtual_private_cloud;fillColor=#F58534;gradientColor=none;" parent="1" vertex="1">
          <mxGeometry x="403" y="145" width="72.5" height="45" as="geometry" />
        </mxCell>
        <mxCell id="6eRfG2nsKR9ZNQWgb50U-18" value="" style="points=[[0,0,0],[0.25,0,0],[0.5,0,0],[0.75,0,0],[1,0,0],[0,1,0],[0.25,1,0],[0.5,1,0],[0.75,1,0],[1,1,0],[0,0.25,0],[0,0.5,0],[0,0.75,0],[1,0.25,0],[1,0.5,0],[1,0.75,0]];outlineConnect=0;fontColor=#232F3E;gradientColor=#60A337;gradientDirection=north;fillColor=#277116;strokeColor=#ffffff;dashed=0;verticalLabelPosition=bottom;verticalAlign=top;align=center;html=1;fontSize=12;fontStyle=0;aspect=fixed;shape=mxgraph.aws4.resourceIcon;resIcon=mxgraph.aws4.s3;" parent="1" vertex="1">
          <mxGeometry x="285" y="488" width="67" height="67" as="geometry" />
        </mxCell>
        <mxCell id="6eRfG2nsKR9ZNQWgb50U-24" value="" style="pointerEvents=1;shadow=0;dashed=0;html=1;strokeColor=none;fillColor=#505050;labelPosition=center;verticalLabelPosition=bottom;verticalAlign=top;outlineConnect=0;align=center;shape=mxgraph.office.users.users;" parent="1" vertex="1">
          <mxGeometry x="1147" y="560" width="95" height="87" as="geometry" />
        </mxCell>
        <mxCell id="6eRfG2nsKR9ZNQWgb50U-25" value="" style="outlineConnect=0;dashed=0;verticalLabelPosition=bottom;verticalAlign=top;align=center;html=1;shape=mxgraph.aws3.internet_2;fillColor=#D2D3D3;gradientColor=none;" parent="1" vertex="1">
          <mxGeometry x="1127" y="368" width="128" height="87" as="geometry" />
        </mxCell>
        <mxCell id="6eRfG2nsKR9ZNQWgb50U-27" value="" style="shape=image;html=1;verticalAlign=top;verticalLabelPosition=bottom;labelBackgroundColor=#ffffff;imageAspect=0;aspect=fixed;image=https://cdn4.iconfinder.com/data/icons/free-large-boss-icon-set/128/Admin.png" parent="1" vertex="1">
          <mxGeometry x="105" y="621" width="91" height="91" as="geometry" />
        </mxCell>
        <mxCell id="6eRfG2nsKR9ZNQWgb50U-29" value="" style="shape=image;html=1;verticalAlign=top;verticalLabelPosition=bottom;labelBackgroundColor=#ffffff;imageAspect=0;aspect=fixed;image=https://cdn2.iconfinder.com/data/icons/stilllife/48x48/filesystems/gnome-fs-ssh.png" parent="1" vertex="1">
          <mxGeometry x="216" y="607" width="43" height="43" as="geometry" />
        </mxCell>
        <mxCell id="6eRfG2nsKR9ZNQWgb50U-34" value="" style="outlineConnect=0;dashed=0;verticalLabelPosition=bottom;verticalAlign=top;align=center;html=1;shape=mxgraph.aws3.ec2;fillColor=#F58534;gradientColor=none;" parent="1" vertex="1">
          <mxGeometry x="466.5" y="523" width="89" height="81.5" as="geometry" />
        </mxCell>
        <mxCell id="6eRfG2nsKR9ZNQWgb50U-14" value="Master" style="text;html=1;strokeColor=none;fillColor=none;align=center;verticalAlign=middle;whiteSpace=wrap;rounded=0;" parent="1" vertex="1">
          <mxGeometry x="580.75" y="302" width="123" height="20" as="geometry" />
        </mxCell>
        <mxCell id="2Eq0taWRFu6XFaqvVXcF-2" value="&lt;font style=&quot;font-size: 16px&quot;&gt;Bastion&lt;/font&gt;" style="text;html=1;strokeColor=none;fillColor=none;align=center;verticalAlign=middle;whiteSpace=wrap;rounded=0;" parent="1" vertex="1">
          <mxGeometry x="445" y="609" width="123" height="20" as="geometry" />
        </mxCell>
        <mxCell id="2Eq0taWRFu6XFaqvVXcF-7" value="&lt;font style=&quot;font-size: 14px&quot;&gt;&lt;span style=&quot;font-size: 12px&quot;&gt;S3 (Data Cluster)&lt;/span&gt;&lt;/font&gt;" style="text;html=1;strokeColor=none;fillColor=none;align=center;verticalAlign=middle;whiteSpace=wrap;rounded=0;" parent="1" vertex="1">
          <mxGeometry x="264" y="563" width="123" height="20" as="geometry" />
        </mxCell>
        <mxCell id="2Eq0taWRFu6XFaqvVXcF-9" value="" style="endArrow=classic;startArrow=classic;html=1;" parent="1" source="6eRfG2nsKR9ZNQWgb50U-27" target="6eRfG2nsKR9ZNQWgb50U-34" edge="1">
          <mxGeometry width="50" height="50" relative="1" as="geometry">
            <mxPoint x="441" y="636" as="sourcePoint" />
            <mxPoint x="491" y="586" as="targetPoint" />
          </mxGeometry>
        </mxCell>
        <mxCell id="2Eq0taWRFu6XFaqvVXcF-10" value="&lt;span style=&quot;font-size: 16px&quot;&gt;DevOps&lt;/span&gt;" style="text;html=1;strokeColor=none;fillColor=none;align=center;verticalAlign=middle;whiteSpace=wrap;rounded=0;" parent="1" vertex="1">
          <mxGeometry x="75" y="714" width="123" height="20" as="geometry" />
        </mxCell>
        <mxCell id="2Eq0taWRFu6XFaqvVXcF-15" value="" style="endArrow=classic;html=1;" parent="1" edge="1">
          <mxGeometry width="50" height="50" relative="1" as="geometry">
            <mxPoint x="1189.70703125" y="560" as="sourcePoint" />
            <mxPoint x="1187.79296875" y="455" as="targetPoint" />
          </mxGeometry>
        </mxCell>
        <mxCell id="2Eq0taWRFu6XFaqvVXcF-16" value="&lt;span style=&quot;font-size: 16px&quot;&gt;User&lt;/span&gt;" style="text;html=1;strokeColor=none;fillColor=none;align=center;verticalAlign=middle;whiteSpace=wrap;rounded=0;" parent="1" vertex="1">
          <mxGeometry x="1135" y="647" width="123" height="20" as="geometry" />
        </mxCell>
        <mxCell id="2Eq0taWRFu6XFaqvVXcF-21" value="&lt;span style=&quot;font-size: 16px&quot;&gt;internet gateway&lt;/span&gt;" style="text;html=1;strokeColor=none;fillColor=none;align=center;verticalAlign=middle;whiteSpace=wrap;rounded=0;" parent="1" vertex="1">
          <mxGeometry x="1013" y="478" width="69" height="20" as="geometry" />
        </mxCell>
        <mxCell id="2Eq0taWRFu6XFaqvVXcF-22" value="&lt;span style=&quot;font-size: 16px&quot;&gt;router&lt;/span&gt;" style="text;html=1;strokeColor=none;fillColor=none;align=center;verticalAlign=middle;whiteSpace=wrap;rounded=0;" parent="1" vertex="1">
          <mxGeometry x="925" y="473" width="69" height="20" as="geometry" />
        </mxCell>
        <mxCell id="2Eq0taWRFu6XFaqvVXcF-23" value="" style="endArrow=none;html=1;entryX=0;entryY=0.7;entryDx=0;entryDy=0;entryPerimeter=0;" parent="1" source="6eRfG2nsKR9ZNQWgb50U-4" target="6eRfG2nsKR9ZNQWgb50U-25" edge="1">
          <mxGeometry width="50" height="50" relative="1" as="geometry">
            <mxPoint x="1116" y="498" as="sourcePoint" />
            <mxPoint x="1166" y="448" as="targetPoint" />
          </mxGeometry>
        </mxCell>
        <mxCell id="2Eq0taWRFu6XFaqvVXcF-24" value="" style="endArrow=none;html=1;" parent="1" source="6eRfG2nsKR9ZNQWgb50U-5" edge="1">
          <mxGeometry width="50" height="50" relative="1" as="geometry">
            <mxPoint x="1116" y="498" as="sourcePoint" />
            <mxPoint x="1018" y="429" as="targetPoint" />
            <Array as="points">
              <mxPoint x="980" y="429" />
            </Array>
          </mxGeometry>
        </mxCell>
        <mxCell id="2Eq0taWRFu6XFaqvVXcF-33" value="&lt;div style=&quot;font-size: 14px&quot;&gt;https://sosmed.ical.host&lt;/div&gt;&lt;div style=&quot;font-size: 14px&quot;&gt;https://profile.ical.host&lt;/div&gt;&lt;div style=&quot;font-size: 14px&quot;&gt;https://blog.ical.host&lt;br&gt;&lt;/div&gt;" style="text;html=1;strokeColor=none;fillColor=none;align=center;verticalAlign=middle;whiteSpace=wrap;rounded=0;" parent="1" vertex="1">
          <mxGeometry x="1185" y="485" width="161" height="20" as="geometry" />
        </mxCell>
        <mxCell id="1rfpA1ZH7WIg0CpuviD7-3" value="&lt;font style=&quot;font-size: 13px&quot;&gt;Availability Zone A&lt;/font&gt; - &lt;span style=&quot;color: rgb(22 , 25 , 31) ; font-family: &amp;#34;amazon ember&amp;#34; , &amp;#34;helvetica neue&amp;#34; , &amp;#34;roboto&amp;#34; , &amp;#34;arial&amp;#34; , sans-serif ; font-size: 14px ; font-style: normal ; font-weight: 400 ; letter-spacing: normal ; text-indent: 0px ; text-transform: none ; word-spacing: 0px ; background-color: rgb(241 , 250 , 255) ; display: inline ; float: none&quot;&gt;172.20.32.0/19&lt;/span&gt; - Public Subnet" style="text;html=1;strokeColor=none;fillColor=none;align=center;verticalAlign=middle;whiteSpace=wrap;rounded=0;" parent="1" vertex="1">
          <mxGeometry x="467" y="667" width="334" height="20" as="geometry" />
        </mxCell>
        <mxCell id="1rfpA1ZH7WIg0CpuviD7-4" value="&lt;font style=&quot;font-size: 13px&quot;&gt;Region Asia Pacific (Singapore) ap-southeast-1&lt;/font&gt;" style="text;html=1;strokeColor=none;fillColor=none;align=center;verticalAlign=middle;whiteSpace=wrap;rounded=0;" parent="1" vertex="1">
          <mxGeometry x="500.25" y="709" width="300.75" height="20" as="geometry" />
        </mxCell>
        <mxCell id="jZcA1e1wZFF17amDmUYj-2" value="" style="points=[[0,0,0],[0.25,0,0],[0.5,0,0],[0.75,0,0],[1,0,0],[0,1,0],[0.25,1,0],[0.5,1,0],[0.75,1,0],[1,1,0],[0,0.25,0],[0,0.5,0],[0,0.75,0],[1,0.25,0],[1,0.5,0],[1,0.75,0]];outlineConnect=0;fontColor=#232F3E;gradientColor=#F78E04;gradientDirection=north;fillColor=#D05C17;strokeColor=#ffffff;dashed=0;verticalLabelPosition=bottom;verticalAlign=top;align=center;html=1;fontSize=12;fontStyle=0;aspect=fixed;shape=mxgraph.aws4.resourceIcon;resIcon=mxgraph.aws4.ecr;" vertex="1" parent="1">
          <mxGeometry x="277" y="366" width="78" height="78" as="geometry" />
        </mxCell>
        <mxCell id="jZcA1e1wZFF17amDmUYj-4" value="ECR (Image Registry)" style="text;html=1;strokeColor=none;fillColor=none;align=center;verticalAlign=middle;whiteSpace=wrap;rounded=0;" vertex="1" parent="1">
          <mxGeometry x="277" y="444" width="123" height="20" as="geometry" />
        </mxCell>
        <mxCell id="jZcA1e1wZFF17amDmUYj-5" value="" style="points=[[0,0,0],[0.25,0,0],[0.5,0,0],[0.75,0,0],[1,0,0],[0,1,0],[0.25,1,0],[0.5,1,0],[0.75,1,0],[1,1,0],[0,0.25,0],[0,0.5,0],[0,0.75,0],[1,0.25,0],[1,0.5,0],[1,0.75,0]];outlineConnect=0;fontColor=#232F3E;gradientColor=#F78E04;gradientDirection=north;fillColor=#D05C17;strokeColor=#ffffff;dashed=0;verticalLabelPosition=bottom;verticalAlign=top;align=center;html=1;fontSize=12;fontStyle=0;aspect=fixed;shape=mxgraph.aws4.resourceIcon;resIcon=mxgraph.aws4.ecs;" vertex="1" parent="1">
          <mxGeometry x="604" y="226.5" width="72.5" height="72.5" as="geometry" />
        </mxCell>
        <mxCell id="jZcA1e1wZFF17amDmUYj-6" value="" style="outlineConnect=0;fontColor=#232F3E;gradientColor=none;fillColor=#3334B9;strokeColor=none;dashed=0;verticalLabelPosition=bottom;verticalAlign=top;align=center;html=1;fontSize=12;fontStyle=0;aspect=fixed;pointerEvents=1;shape=mxgraph.aws4.rds_mysql_instance;" vertex="1" parent="1">
          <mxGeometry x="694" y="538" width="78" height="78" as="geometry" />
        </mxCell>
        <mxCell id="jZcA1e1wZFF17amDmUYj-7" value="DB Production" style="text;html=1;strokeColor=none;fillColor=none;align=center;verticalAlign=middle;whiteSpace=wrap;rounded=0;" vertex="1" parent="1">
          <mxGeometry x="678" y="620" width="123" height="20" as="geometry" />
        </mxCell>
        <mxCell id="jZcA1e1wZFF17amDmUYj-8" value="" style="outlineConnect=0;fontColor=#232F3E;gradientColor=none;fillColor=#3334B9;strokeColor=none;dashed=0;verticalLabelPosition=bottom;verticalAlign=top;align=center;html=1;fontSize=12;fontStyle=0;aspect=fixed;pointerEvents=1;shape=mxgraph.aws4.rds_mysql_instance;" vertex="1" parent="1">
          <mxGeometry x="794" y="538" width="78" height="78" as="geometry" />
        </mxCell>
        <mxCell id="jZcA1e1wZFF17amDmUYj-9" value="DB Staging" style="text;html=1;strokeColor=none;fillColor=none;align=center;verticalAlign=middle;whiteSpace=wrap;rounded=0;" vertex="1" parent="1">
          <mxGeometry x="771.5" y="623" width="123" height="20" as="geometry" />
        </mxCell>
        <mxCell id="jZcA1e1wZFF17amDmUYj-12" value="Worker-1" style="text;html=1;strokeColor=none;fillColor=none;align=center;verticalAlign=middle;whiteSpace=wrap;rounded=0;" vertex="1" parent="1">
          <mxGeometry x="428" y="394" width="123" height="20" as="geometry" />
        </mxCell>
        <mxCell id="jZcA1e1wZFF17amDmUYj-13" value="" style="points=[[0,0,0],[0.25,0,0],[0.5,0,0],[0.75,0,0],[1,0,0],[0,1,0],[0.25,1,0],[0.5,1,0],[0.75,1,0],[1,1,0],[0,0.25,0],[0,0.5,0],[0,0.75,0],[1,0.25,0],[1,0.5,0],[1,0.75,0]];outlineConnect=0;fontColor=#232F3E;gradientColor=#F78E04;gradientDirection=north;fillColor=#D05C17;strokeColor=#ffffff;dashed=0;verticalLabelPosition=bottom;verticalAlign=top;align=center;html=1;fontSize=12;fontStyle=0;aspect=fixed;shape=mxgraph.aws4.resourceIcon;resIcon=mxgraph.aws4.ecs;" vertex="1" parent="1">
          <mxGeometry x="555.5" y="326" width="62.5" height="62.5" as="geometry" />
        </mxCell>
        <mxCell id="jZcA1e1wZFF17amDmUYj-14" value="Worker-2" style="text;html=1;strokeColor=none;fillColor=none;align=center;verticalAlign=middle;whiteSpace=wrap;rounded=0;" vertex="1" parent="1">
          <mxGeometry x="525.25" y="393" width="123" height="20" as="geometry" />
        </mxCell>
        <mxCell id="jZcA1e1wZFF17amDmUYj-15" value="" style="points=[[0,0,0],[0.25,0,0],[0.5,0,0],[0.75,0,0],[1,0,0],[0,1,0],[0.25,1,0],[0.5,1,0],[0.75,1,0],[1,1,0],[0,0.25,0],[0,0.5,0],[0,0.75,0],[1,0.25,0],[1,0.5,0],[1,0.75,0]];outlineConnect=0;fontColor=#232F3E;gradientColor=#F78E04;gradientDirection=north;fillColor=#D05C17;strokeColor=#ffffff;dashed=0;verticalLabelPosition=bottom;verticalAlign=top;align=center;html=1;fontSize=12;fontStyle=0;aspect=fixed;shape=mxgraph.aws4.resourceIcon;resIcon=mxgraph.aws4.ecs;" vertex="1" parent="1">
          <mxGeometry x="665.5" y="326" width="62.5" height="62.5" as="geometry" />
        </mxCell>
        <mxCell id="jZcA1e1wZFF17amDmUYj-17" value="" style="points=[[0,0,0],[0.25,0,0],[0.5,0,0],[0.75,0,0],[1,0,0],[0,1,0],[0.25,1,0],[0.5,1,0],[0.75,1,0],[1,1,0],[0,0.25,0],[0,0.5,0],[0,0.75,0],[1,0.25,0],[1,0.5,0],[1,0.75,0]];outlineConnect=0;fontColor=#232F3E;gradientColor=#F78E04;gradientDirection=north;fillColor=#D05C17;strokeColor=#ffffff;dashed=0;verticalLabelPosition=bottom;verticalAlign=top;align=center;html=1;fontSize=12;fontStyle=0;aspect=fixed;shape=mxgraph.aws4.resourceIcon;resIcon=mxgraph.aws4.ecs;" vertex="1" parent="1">
          <mxGeometry x="771.5" y="327.5" width="62.5" height="62.5" as="geometry" />
        </mxCell>
        <mxCell id="jZcA1e1wZFF17amDmUYj-18" value="Worker-4" style="text;html=1;strokeColor=none;fillColor=none;align=center;verticalAlign=middle;whiteSpace=wrap;rounded=0;" vertex="1" parent="1">
          <mxGeometry x="745" y="395" width="123" height="20" as="geometry" />
        </mxCell>
        <mxCell id="6eRfG2nsKR9ZNQWgb50U-11" value="" style="outlineConnect=0;dashed=0;verticalLabelPosition=bottom;verticalAlign=top;align=center;html=1;shape=mxgraph.aws3.router;fillColor=#F58536;gradientColor=none;" parent="1" vertex="1">
          <mxGeometry x="925" y="390" width="69" height="72" as="geometry" />
        </mxCell>
        <mxCell id="6eRfG2nsKR9ZNQWgb50U-12" value="" style="outlineConnect=0;dashed=0;verticalLabelPosition=bottom;verticalAlign=top;align=center;html=1;shape=mxgraph.aws3.classic_load_balancer;fillColor=#F58536;gradientColor=none;" parent="1" vertex="1">
          <mxGeometry x="841" y="387" width="74" height="75" as="geometry" />
        </mxCell>
        <mxCell id="jZcA1e1wZFF17amDmUYj-19" value="&lt;font style=&quot;font-size: 15px&quot;&gt;ingress /ELB&lt;br&gt;&lt;/font&gt;" style="text;html=1;strokeColor=none;fillColor=none;align=center;verticalAlign=middle;whiteSpace=wrap;rounded=0;" vertex="1" parent="1">
          <mxGeometry x="771.5" y="467" width="169" height="20" as="geometry" />
        </mxCell>
        <mxCell id="jZcA1e1wZFF17amDmUYj-20" value="Worker-3" style="text;html=1;strokeColor=none;fillColor=none;align=center;verticalAlign=middle;whiteSpace=wrap;rounded=0;" vertex="1" parent="1">
          <mxGeometry x="634" y="396" width="123" height="20" as="geometry" />
        </mxCell>
        <mxCell id="jZcA1e1wZFF17amDmUYj-31" value="" style="endArrow=none;html=1;" edge="1" parent="1" source="6eRfG2nsKR9ZNQWgb50U-5" target="jZcA1e1wZFF17amDmUYj-2">
          <mxGeometry width="50" height="50" relative="1" as="geometry">
            <mxPoint x="738" y="413" as="sourcePoint" />
            <mxPoint x="788" y="363" as="targetPoint" />
          </mxGeometry>
        </mxCell>
        <mxCell id="jZcA1e1wZFF17amDmUYj-32" value="" style="endArrow=none;html=1;entryX=-0.003;entryY=0.691;entryDx=0;entryDy=0;entryPerimeter=0;" edge="1" parent="1" source="6eRfG2nsKR9ZNQWgb50U-18" target="6eRfG2nsKR9ZNQWgb50U-5">
          <mxGeometry width="50" height="50" relative="1" as="geometry">
            <mxPoint x="738" y="413" as="sourcePoint" />
            <mxPoint x="788" y="363" as="targetPoint" />
          </mxGeometry>
        </mxCell>
        <mxCell id="jZcA1e1wZFF17amDmUYj-33" value="&lt;font style=&quot;font-size: 13px&quot;&gt;Namespace : PRODUCTION &amp;amp; STAGING&lt;br&gt;&lt;/font&gt;" style="text;html=1;strokeColor=none;fillColor=none;align=center;verticalAlign=middle;whiteSpace=wrap;rounded=0;" vertex="1" parent="1">
          <mxGeometry x="580.75" y="164" width="319" height="20" as="geometry" />
        </mxCell>
        <mxCell id="jZcA1e1wZFF17amDmUYj-37" value="" style="points=[[0,0,0],[0.25,0,0],[0.5,0,0],[0.75,0,0],[1,0,0],[0,1,0],[0.25,1,0],[0.5,1,0],[0.75,1,0],[1,1,0],[0,0.25,0],[0,0.5,0],[0,0.75,0],[1,0.25,0],[1,0.5,0],[1,0.75,0]];outlineConnect=0;fontColor=#232F3E;gradientColor=#F78E04;gradientDirection=north;fillColor=#D05C17;strokeColor=#ffffff;dashed=0;verticalLabelPosition=bottom;verticalAlign=top;align=center;html=1;fontSize=12;fontStyle=0;aspect=fixed;shape=mxgraph.aws4.resourceIcon;resIcon=mxgraph.aws4.ecs;" vertex="1" parent="1">
          <mxGeometry x="454" y="326" width="62.5" height="62.5" as="geometry" />
        </mxCell>
      </root>
    </mxGraphModel>
  </diagram>
</mxfile>
